<svg width="80" height="60" viewBox="0 0 80 60" fill="none" xmlns="http://www.w3.org/2000/svg">
<path d="M46.6667 43.3333H53.3333V33.3333H63.3333V26.6667H53.3333V16.6667H46.6667V26.6667H36.6667V33.3333H46.6667V43.3333ZM20 58.3333C13.9444 56.2222 9.09778 52.5689 5.46 47.3733C1.82 42.18 0 36.3889 0 30C0 23.6111 1.82 17.8189 5.46 12.6233C9.09778 7.43 13.9444 3.77778 20 1.66667V9C15.8889 10.9444 12.6389 13.8056 10.25 17.5833C7.86111 21.3611 6.66667 25.5 6.66667 30C6.66667 34.5 7.86111 38.6389 10.25 42.4167C12.6389 46.1944 15.8889 49.0556 20 51V58.3333ZM50 60C45.8333 60 41.9311 59.2089 38.2933 57.6267C34.6533 56.0422 31.4867 53.9022 28.7933 51.2067C26.0978 48.5133 23.9589 45.3467 22.3767 41.7067C20.7922 38.0689 20 34.1667 20 30C20 25.8333 20.7922 21.93 22.3767 18.29C23.9589 14.6522 26.0978 11.4856 28.7933 8.79C31.4867 6.09667 34.6533 3.95778 38.2933 2.37333C41.9311 0.791111 45.8333 0 50 0C54.1667 0 58.07 0.791111 61.71 2.37333C65.3478 3.95778 68.5144 6.09667 71.21 8.79C73.9033 11.4856 76.0422 14.6522 77.6267 18.29C79.2089 21.93 80 25.8333 80 30C80 34.1667 79.2089 38.0689 77.6267 41.7067C76.0422 45.3467 73.9033 48.5133 71.21 51.2067C68.5144 53.9022 65.3478 56.0422 61.71 57.6267C58.07 59.2089 54.1667 60 50 60ZM50 53.3333C56.5 53.3333 62.0133 51.0689 66.54 46.54C71.0689 42.0133 73.3333 36.5 73.3333 30C73.3333 23.5 71.0689 17.9856 66.54 13.4567C62.0133 8.93 56.5 6.66667 50 6.66667C43.5 6.66667 37.9867 8.93 33.46 13.4567C28.9311 17.9856 26.6667 23.5 26.6667 30C26.6667 36.5 28.9311 42.0133 33.46 46.54C37.9867 51.0689 43.5 53.3333 50 53.3333Z" fill="#171717"/>
</svg>
