<svg width="122" height="36" viewBox="0 0 122 36" fill="none" xmlns="http://www.w3.org/2000/svg">
<rect x="0.5" y="0.5" width="121" height="35" rx="9.5" fill="#E9F9EE"/>
<g clip-path="url(#clip0_107_703)">
<path fill-rule="evenodd" clip-rule="evenodd" d="M17.7906 16.9747C17.6357 17.1295 17.5129 17.3132 17.4292 17.5155C17.3454 17.7177 17.3022 17.9345 17.3022 18.1534C17.3022 18.3723 17.3454 18.589 17.4292 18.7913C17.5129 18.9935 17.6357 19.1773 17.7906 19.332L19.6766 21.2174C19.9239 21.4645 20.2428 21.6276 20.5879 21.6835C20.9331 21.7395 21.2871 21.6854 21.5999 21.529C21.9126 21.3726 22.1683 21.1219 22.3307 20.8122C22.493 20.5025 22.5539 20.1495 22.5046 19.8034L23.1532 19.1547L27.2052 23.8307C27.3727 24.0238 27.5782 24.1803 27.8088 24.2905C28.0395 24.4007 28.2903 24.4623 28.5458 24.4713C28.8013 24.4804 29.0558 24.4367 29.2937 24.3431C29.5316 24.2495 29.7476 24.1079 29.9283 23.9271C30.1091 23.7464 30.2507 23.5304 30.3443 23.2925C30.4379 23.0546 30.4816 22.8001 30.4725 22.5446C30.4635 22.2891 30.4019 22.0383 30.2917 21.8076C30.1815 21.577 30.025 21.3715 29.8319 21.204L25.1566 17.1514L25.8046 16.5034C26.1509 16.5528 26.504 16.4921 26.8139 16.3297C27.1237 16.1673 27.3747 15.9116 27.5311 15.5987C27.6875 15.2857 27.7415 14.9315 27.6854 14.5862C27.6293 14.2409 27.466 13.922 27.2186 13.6747L25.3332 11.79C25.0859 11.5425 24.7669 11.3792 24.4215 11.3231C24.0761 11.267 23.7218 11.321 23.4089 11.4775C23.0959 11.6341 22.8401 11.8851 22.6778 12.1951C22.5155 12.5051 22.4549 12.8583 22.5046 13.2047L19.2046 16.504C18.9486 16.4674 18.6875 16.4909 18.4422 16.5727C18.1969 16.6545 17.974 16.7924 17.7912 16.9754L17.7906 16.9747ZM24.6266 15.7967L21.7986 18.6247L20.3839 17.2107L23.2126 14.382L24.6266 15.7967ZM18.7332 18.3894C18.7022 18.3584 18.6776 18.3217 18.6608 18.2812C18.6441 18.2408 18.6354 18.1974 18.6354 18.1536C18.6353 18.1098 18.6439 18.0664 18.6607 18.0259C18.6774 17.9855 18.7019 17.9487 18.7329 17.9177C18.7638 17.8867 18.8006 17.8621 18.841 17.8453C18.8815 17.8285 18.9249 17.8199 18.9687 17.8198C19.0125 17.8198 19.0558 17.8284 19.0963 17.8451C19.1368 17.8619 19.1736 17.8864 19.2046 17.9174L21.0906 19.8034C21.1224 19.8341 21.1478 19.8709 21.1653 19.9116C21.1827 19.9522 21.1919 19.996 21.1923 20.0402C21.1927 20.0845 21.1843 20.1284 21.1675 20.1693C21.1507 20.2103 21.126 20.2475 21.0947 20.2788C21.0634 20.3101 21.0262 20.3349 20.9852 20.3516C20.9442 20.3684 20.9003 20.3768 20.8561 20.3764C20.8118 20.3761 20.7681 20.3669 20.7274 20.3494C20.6868 20.3319 20.65 20.3065 20.6192 20.2747L18.7332 18.3894ZM23.9186 13.2034C23.8867 13.1726 23.8613 13.1358 23.8439 13.0952C23.8264 13.0545 23.8172 13.0108 23.8168 12.9665C23.8164 12.9222 23.8249 12.8783 23.8416 12.8374C23.8584 12.7964 23.8831 12.7592 23.9144 12.7279C23.9457 12.6966 23.9829 12.6718 24.0239 12.6551C24.0649 12.6383 24.1088 12.6299 24.153 12.6303C24.1973 12.6307 24.241 12.6399 24.2817 12.6573C24.3224 12.6748 24.3591 12.7002 24.3899 12.732L26.2759 14.618C26.3077 14.6488 26.3331 14.6856 26.3506 14.7262C26.3681 14.7669 26.3773 14.8106 26.3776 14.8549C26.378 14.8992 26.3696 14.943 26.3528 14.984C26.3361 15.025 26.3113 15.0622 26.28 15.0935C26.2487 15.1248 26.2115 15.1495 26.1705 15.1663C26.1296 15.1831 26.0857 15.1915 26.0414 15.1911C25.9972 15.1907 25.9534 15.1815 25.9128 15.1641C25.8721 15.1466 25.8353 15.1212 25.8046 15.0894L23.9186 13.2034ZM28.2132 22.9574L24.2079 18.336L24.3372 18.206L28.9592 22.2114C29.0125 22.2594 29.0554 22.3178 29.0853 22.3829C29.1153 22.4481 29.1317 22.5186 29.1335 22.5903C29.1354 22.662 29.1226 22.7333 29.096 22.7999C29.0694 22.8665 29.0296 22.927 28.9789 22.9777C28.9282 23.0284 28.8677 23.0682 28.8011 23.0948C28.7345 23.1214 28.6632 23.1342 28.5915 23.1323C28.5198 23.1305 28.4493 23.1141 28.3841 23.0841C28.319 23.0542 28.2606 23.0113 28.2126 22.958L28.2132 22.9574Z" fill="#18794E"/>
</g>
<path d="M49.5478 17.9072C49.5478 19.0329 49.3427 19.974 48.9326 20.7305C48.5224 21.4824 47.9277 22.0498 47.1484 22.4326C46.3736 22.8109 45.4326 23 44.3251 23H41.6113V13.0059H44.6259C45.6422 13.0059 46.5172 13.1927 47.2509 13.5664C47.9846 13.9355 48.5497 14.4847 48.9462 15.2139C49.3473 15.9385 49.5478 16.8363 49.5478 17.9072ZM48.3242 17.9482C48.3242 17.0505 48.1738 16.3099 47.873 15.7266C47.5768 15.1432 47.1393 14.7103 46.5605 14.4277C45.9863 14.1406 45.2822 13.9971 44.4482 13.9971H42.7734V22.002H44.1884C45.5647 22.002 46.5969 21.6624 47.2851 20.9834C47.9778 20.3044 48.3242 19.2926 48.3242 17.9482ZM54.3957 15.3848C55.2889 15.3848 55.952 15.5853 56.385 15.9863C56.8179 16.3874 57.0344 17.0277 57.0344 17.9072V23H56.2072L55.9885 21.8926H55.9338C55.7242 22.166 55.5054 22.3962 55.2775 22.583C55.0497 22.7653 54.7854 22.9043 54.4846 23C54.1883 23.0911 53.8238 23.1367 53.3908 23.1367C52.9351 23.1367 52.5295 23.057 52.174 22.8975C51.8231 22.738 51.5451 22.4964 51.34 22.1729C51.1395 21.8493 51.0393 21.4391 51.0393 20.9424C51.0393 20.195 51.3355 19.6208 51.9279 19.2197C52.5204 18.8187 53.4227 18.5999 54.635 18.5635L55.927 18.5088V18.0508C55.927 17.4036 55.788 16.9502 55.51 16.6904C55.232 16.4307 54.84 16.3008 54.3342 16.3008C53.9423 16.3008 53.5686 16.3577 53.2131 16.4717C52.8576 16.5856 52.5204 16.7201 52.2014 16.875L51.8527 16.0137C52.19 15.8405 52.5773 15.6924 53.0148 15.5693C53.4523 15.4463 53.9126 15.3848 54.3957 15.3848ZM55.9133 19.3086L54.7717 19.3564C53.8374 19.3929 53.1789 19.5456 52.7961 19.8145C52.4133 20.0833 52.2219 20.4639 52.2219 20.9561C52.2219 21.3844 52.3518 21.7012 52.6115 21.9062C52.8713 22.1113 53.2154 22.2139 53.6438 22.2139C54.3091 22.2139 54.8537 22.0293 55.2775 21.6602C55.7014 21.291 55.9133 20.7373 55.9133 19.999V19.3086ZM62.771 15.3711C62.9214 15.3711 63.0786 15.3802 63.2426 15.3984C63.4067 15.4121 63.5525 15.4326 63.6801 15.46L63.5366 16.5127C63.4135 16.4808 63.2768 16.4557 63.1264 16.4375C62.976 16.4193 62.8348 16.4102 62.7026 16.4102C62.4018 16.4102 62.117 16.4717 61.8481 16.5947C61.5838 16.7132 61.3514 16.8864 61.1508 17.1143C60.9503 17.3376 60.7931 17.6087 60.6792 17.9277C60.5652 18.2422 60.5083 18.5931 60.5083 18.9805V23H59.3667V15.5078H60.31L60.4331 16.8887H60.4809C60.6359 16.6107 60.8227 16.3577 61.0415 16.1299C61.2602 15.8975 61.5132 15.7129 61.8003 15.5762C62.0919 15.4395 62.4155 15.3711 62.771 15.3711ZM68.8916 23V13.0059H70.0537V21.9609H74.4902V23H68.8916ZM78.8323 15.3848C79.7255 15.3848 80.3886 15.5853 80.8215 15.9863C81.2545 16.3874 81.471 17.0277 81.471 17.9072V23H80.6438L80.4251 21.8926H80.3704C80.1607 22.166 79.942 22.3962 79.7141 22.583C79.4863 22.7653 79.2219 22.9043 78.9212 23C78.6249 23.0911 78.2604 23.1367 77.8274 23.1367C77.3717 23.1367 76.9661 23.057 76.6106 22.8975C76.2597 22.738 75.9817 22.4964 75.7766 22.1729C75.5761 21.8493 75.4758 21.4391 75.4758 20.9424C75.4758 20.195 75.7721 19.6208 76.3645 19.2197C76.957 18.8187 77.8593 18.5999 79.0715 18.5635L80.3635 18.5088V18.0508C80.3635 17.4036 80.2245 16.9502 79.9465 16.6904C79.6686 16.4307 79.2766 16.3008 78.7708 16.3008C78.3788 16.3008 78.0051 16.3577 77.6497 16.4717C77.2942 16.5856 76.957 16.7201 76.638 16.875L76.2893 16.0137C76.6266 15.8405 77.0139 15.6924 77.4514 15.5693C77.8889 15.4463 78.3492 15.3848 78.8323 15.3848ZM80.3499 19.3086L79.2083 19.3564C78.274 19.3929 77.6155 19.5456 77.2327 19.8145C76.8499 20.0833 76.6585 20.4639 76.6585 20.9561C76.6585 21.3844 76.7883 21.7012 77.0481 21.9062C77.3079 22.1113 77.652 22.2139 78.0803 22.2139C78.7457 22.2139 79.2903 22.0293 79.7141 21.6602C80.138 21.291 80.3499 20.7373 80.3499 19.999V19.3086ZM87.3511 15.3711C88.2398 15.3711 88.912 15.5898 89.3677 16.0273C89.8234 16.4603 90.0513 17.1576 90.0513 18.1191V23H88.9302V18.1943C88.9302 17.57 88.7867 17.1029 88.4995 16.793C88.217 16.4831 87.7818 16.3281 87.1939 16.3281C86.3645 16.3281 85.7811 16.5628 85.4439 17.0322C85.1066 17.5016 84.938 18.1829 84.938 19.0762V23H83.8033V15.5078H84.7193L84.8902 16.5879H84.9517C85.1112 16.3236 85.314 16.1025 85.5601 15.9248C85.8062 15.7425 86.0819 15.6058 86.3872 15.5146C86.6926 15.4189 87.0139 15.3711 87.3511 15.3711ZM95.3846 23.1367C94.7101 23.1367 94.1154 22.9977 93.6004 22.7197C93.0854 22.4417 92.6844 22.0179 92.3973 21.4482C92.1102 20.8786 91.9666 20.1608 91.9666 19.2949C91.9666 18.388 92.117 17.6475 92.4178 17.0732C92.7231 16.4945 93.1424 16.0661 93.6756 15.7881C94.2088 15.5101 94.8149 15.3711 95.4939 15.3711C95.8676 15.3711 96.2277 15.4098 96.574 15.4873C96.9249 15.5602 97.212 15.6536 97.4353 15.7676L97.0936 16.7178C96.8657 16.6266 96.6014 16.5446 96.3006 16.4717C96.0044 16.3988 95.7264 16.3623 95.4666 16.3623C94.9471 16.3623 94.5141 16.474 94.1678 16.6973C93.826 16.9206 93.5685 17.2487 93.3953 17.6816C93.2267 18.1146 93.1424 18.6478 93.1424 19.2812C93.1424 19.8874 93.2244 20.4046 93.3885 20.833C93.5571 21.2614 93.8055 21.5895 94.1336 21.8174C94.4663 22.0407 94.881 22.1523 95.3777 22.1523C95.7742 22.1523 96.132 22.1113 96.451 22.0293C96.77 21.9427 97.0594 21.8424 97.3191 21.7285V22.7402C97.0685 22.8678 96.7882 22.9658 96.4783 23.0342C96.173 23.1025 95.8084 23.1367 95.3846 23.1367ZM101.976 15.3711C102.614 15.3711 103.161 15.5124 103.616 15.7949C104.072 16.0775 104.421 16.474 104.662 16.9844C104.904 17.4902 105.024 18.0827 105.024 18.7617V19.4658H99.8497C99.8633 20.3454 100.082 21.0153 100.506 21.4756C100.93 21.9359 101.527 22.166 102.297 22.166C102.771 22.166 103.19 22.1227 103.555 22.0361C103.919 21.9495 104.298 21.8219 104.69 21.6533V22.6514C104.311 22.82 103.935 22.943 103.562 23.0205C103.192 23.098 102.755 23.1367 102.249 23.1367C101.529 23.1367 100.9 22.9909 100.362 22.6992C99.8292 22.403 99.4144 21.9701 99.1182 21.4004C98.822 20.8307 98.6739 20.1335 98.6739 19.3086C98.6739 18.502 98.8083 17.8047 99.0772 17.2168C99.3506 16.6243 99.7335 16.1686 100.226 15.8496C100.722 15.5306 101.306 15.3711 101.976 15.3711ZM101.962 16.3008C101.356 16.3008 100.873 16.499 100.513 16.8955C100.153 17.292 99.9385 17.8457 99.8702 18.5566H103.835C103.83 18.11 103.76 17.7181 103.623 17.3809C103.491 17.0391 103.288 16.7747 103.015 16.5879C102.741 16.3965 102.39 16.3008 101.962 16.3008Z" fill="#18794E"/>
<rect x="0.5" y="0.5" width="121" height="35" rx="9.5" stroke="#18794E"/>
<defs>
<clipPath id="clip0_107_703">
<rect width="16" height="16" fill="white" transform="translate(16 10)"/>
</clipPath>
</defs>
</svg>
