<svg width="85" height="85" viewBox="0 0 85 85" fill="none" xmlns="http://www.w3.org/2000/svg">
<path d="M32.5381 46.0859V53.9219H26.2959V46.0859C26.2959 41.9688 22.9756 38.5156 18.8584 38.5156C14.7412 38.5156 11.4209 41.9688 11.4209 46.0859V48.0781C11.4209 49.8047 10.0928 51.1328 8.36621 51.1328C7.56934 51.1328 6.77246 50.7344 6.1084 50.2031C5.57715 49.6719 5.17871 48.875 5.17871 48.0781V46.0859C5.31152 38.5156 11.4209 32.4062 18.8584 32.4062C26.4287 32.4062 32.5381 38.5156 32.5381 46.0859Z" fill="#F9E598"/>
<path d="M33.0693 56.7109H4.64746C2.38965 56.7109 0.530273 58.5703 0.530273 60.8281V80.6172C0.530273 82.875 2.38965 84.7344 4.64746 84.7344H33.0693C35.3272 84.7344 37.1865 82.875 37.1865 80.6172V60.8281C37.1865 58.5703 35.3272 56.7109 33.0693 56.7109ZM22.0459 75.5703C22.1787 76.2344 21.7803 76.7656 21.1162 76.7656H16.8662C16.2022 76.7656 15.8037 76.2344 15.9365 75.5703L16.6006 72.5156C16.7334 72.25 16.6006 71.8516 16.335 71.5859C15.4053 70.7891 14.874 69.4609 15.0068 68C15.2725 66.2734 16.7334 64.8125 18.46 64.6797C20.9834 64.2812 23.1084 66.2734 23.1084 68.6641C23.1084 69.8594 22.5772 70.9219 21.7803 71.7187C21.5147 71.9844 21.3818 72.25 21.5147 72.6484L22.0459 75.5703Z" fill="#FCDB5A"/>
<path d="M75.1704 42.6328C75.1704 54.3203 72.5142 65.4766 67.0689 75.836C66.8032 76.3672 66.5376 76.7657 66.272 77.2969C65.4751 78.625 64.2798 79.4219 62.8188 78.4922C61.3579 77.5625 61.3579 76.2344 62.022 74.9063C62.4204 73.9766 62.9517 73.1797 63.3501 72.25C67.7329 63.3516 70.1235 53.9219 70.2564 45.9531C70.2564 29.2188 60.2954 17.9297 46.7485 15.6719C28.2876 12.6172 20.4517 27.4922 19.9204 28.2891L18.9907 29.75C16.7329 29.75 14.6079 30.1485 12.7485 31.0781L14.3423 27.625C18.5923 19.2578 26.4282 13.0156 35.8579 11.0235C55.9126 6.64064 75.0376 21.9141 75.1704 42.6328Z" fill="#FDC040"/>
<path d="M65.0767 44.7578C64.5454 58.3047 60.1626 70.3906 51.7954 81.1485C51.2642 81.9453 50.6001 82.6094 49.936 83.4063C48.8735 84.7344 47.5454 85.3985 46.0845 84.0703C44.6235 82.7422 45.022 81.4141 46.2173 80.086C49.5376 76.1016 52.4595 71.8516 54.7173 67.2031C58.3032 59.7656 60.1626 51.7969 60.1626 43.5625C60.2954 33.4688 52.7251 25.5 43.0298 25.5C42.6313 25.5 42.2329 25.5 41.7017 25.5C36.3892 25.7656 31.6079 28.8203 28.686 33.2031C27.3579 32.1406 25.897 31.3438 24.1704 30.8125L24.3032 30.5469C25.7642 28.2891 27.4907 26.1641 29.7485 24.5703C33.6001 21.7813 38.2485 20.3203 43.4282 20.4531C56.311 20.7188 65.6079 31.211 65.0767 44.7578Z" fill="#FDC040"/>
<path d="M55.2485 44.4921C54.5845 56.9765 50.3345 67.6015 42.6313 76.6327L39.9751 79.4218V71.7187L42.6313 68.2656C47.4126 61.0937 49.936 52.7265 50.2017 43.4296C50.3345 38.5156 47.2798 35.1952 43.0298 35.1952H42.897C39.5767 35.1952 36.7876 37.7187 35.9907 40.9062L35.061 44.8906C34.7954 41.8359 33.8657 39.0468 32.272 36.6562L32.4048 36.3906C33.9985 33.4687 36.6548 31.2109 39.8423 30.5468H39.9751C45.2876 29.2187 50.7329 31.6093 53.522 36.3906C55.1157 38.914 55.5142 41.5702 55.2485 44.4921Z" fill="#FDC040"/>
<path d="M45.4204 43.6952C45.022 49.0077 44.0923 53.7889 42.3657 58.3046L39.8423 62.6874V60.6952C39.8423 58.703 39.0454 56.9764 37.7173 55.7811L38.647 53.1249C39.4438 50.3358 39.9751 47.2811 40.1079 44.2264C40.1079 44.0936 40.1079 43.9608 40.1079 43.9608C40.1079 42.1014 40.3735 40.2421 42.7642 40.3749C45.2876 40.3749 45.4204 42.2343 45.4204 43.6952Z" fill="#FDC040"/>
<path d="M82.6075 45.0234C80.7481 45.0234 80.2168 43.5625 79.9512 41.9687C79.6856 39.8437 79.6856 37.7187 79.2871 35.5937C75.834 17.2656 59.0996 4.24996 40.6387 5.44527C29.084 6.10933 18.8574 12.0859 12.4824 20.9843C11.0215 22.9765 9.8262 25.1015 8.89651 27.3593C7.83401 29.8828 7.03713 32.539 6.50588 35.1953C4.11526 38.1171 2.65432 41.9687 2.65432 46.0859V48.0781C2.65432 48.4765 2.65432 48.875 2.78713 49.2734C2.52151 49.2734 2.3887 49.2734 2.12307 49.2734C0.263697 49.0078 -0.134741 47.414 0.130884 45.8203C0.529322 42.8984 0.529322 41.8359 0.662134 40.7734C1.06057 31.7421 4.11526 23.5078 9.8262 16.3359C20.7168 2.78902 38.1153 -2.92192 54.7168 2.12496C71.9825 7.43746 81.8106 19.6562 84.7324 37.3203C84.8653 38.3828 84.8653 41.4375 84.8653 41.8359C85.1309 43.6953 84.5996 45.0234 82.6075 45.0234Z" fill="#FDC040"/>
</svg>
